<svg xmlns="http://www.w3.org/2000/svg" xmlns:xlink="http://www.w3.org/1999/xlink" id="Layer_1" x="0px" y="0px" viewBox="0 0 685 156" style="enable-background:new 0 0 685 156;" xml:space="preserve"> <style type="text/css"> .st0{fill:#353535;} .st1{fill:#005B7F;} .st2{fill:#B7B7B7;} .st3{fill:#00A551;} .st4{fill:#232323;} .st5{opacity:0.89;fill:#CA2127;enable-background:new ;} .st6{fill:none;} .st7{font-family:'Montserrat-Regular';} .st8{font-size:30px;} </style> <g id="_x23_353535ff"> <path class="st0" d="M36.3,15.4c9.8,0.1,19.5,0.1,29.3,0c-0.1,8.4,0,16.9-0.1,25.3C55.8,50.4,46,60.1,36.3,69.9 C36.5,51.7,36.4,33.5,36.3,15.4z"></path> <path class="st0" d="M94.5,15.6c13.8-0.6,27.6,0.1,41.4-0.3c-4.4,4.5-9,8.8-13.2,13.5c-6.6,6.7-13.2,13.2-19.8,19.8 c-6.1,6-12.1,12.2-18.3,18.2c-6.3,6.2-12.8,12.3-18.7,18.9c0.7,0,2.1,0,2.7,0c12.7,0.2,25.5-0.3,38.2,0.2c3.5,2.5,6.2,6,9.3,8.9 c2.6,2.7,5.8,5.1,7.9,8.3c0.3,13.3,0.3,26.7,0,40c-16.7-16-32.7-32.7-49.5-48.7c-2.8-2.8-5.4-5.8-8.7-7.9 c-0.5,9.3-0.1,18.7-0.2,28.1c-9.8,9.7-19.6,19.4-29.3,29.3c0.3-23.5,0-47,0.1-70.4C55.9,54.2,75,34.7,94.5,15.6z"></path> </g> <g id="_x23_005b7fff"> <path class="st1" d="M102.9,48.6c6.6-6.6,13.2-13.2,19.8-19.8c2.9,1.7,5.9,3.2,8.7,5c-6.7,6.2-13.6,12.3-20.6,18.1 c-0.4-0.1-1.2-0.3-1.6-0.4C107,50.7,105,49.6,102.9,48.6z"></path> </g> <g id="_x23_b7b7b7ff"> <path class="st2" d="M153,36c0.5,0,1.5,0,2,0c0,25.3,0,50.7,0,76c-0.5,0-1.5,0-2,0C153,86.7,153,61.3,153,36z"></path> </g> <g id="_x23_00a551ff"> <path class="st3" d="M84.7,66.8c6.1-6,12.1-12.2,18.3-18.2c2.1,1,4.1,2,6.2,2.9c-7,5.5-13.2,12-20.3,17.4c-0.4-0.1-1.1-0.3-1.4-0.5 C86.5,67.9,85.6,67.4,84.7,66.8z"></path> </g> <g id="_x23_232323ff"> <path class="st4" d="M170.8,49c3.7,0,7.5,0,11.2,0c0.1,7.8-0.1,15.6,0.1,23.3c6.1-6,11.9-12.2,17.9-18.3c1.7-1.6,3-3.7,5.1-4.9 c4.2-0.4,8.3-0.2,12.5,0c-6.2,8.3-14.2,14.9-20.8,22.8c7.3,9.4,15.2,18.3,22.3,27.9c-4.1,0.2-8.1,0.3-12.2,0.1 c-1.4,0.1-2.1-1.2-2.9-2c-5-5.9-9.9-11.9-15.1-17.6c-2.3,2.2-4.8,4.2-6.7,6.8c-0.5,4.2-0.1,8.5-0.2,12.8c-3.7,0-7.5,0-11.2,0 C170.7,83,170.7,66,170.8,49z"></path> <path class="st4" d="M226.8,49c8.4,0,16.9-0.2,25.3,0.1c6.9,0.3,14.6,3.5,17.5,10.3c2.6,6.5,1.9,14.9-3.2,19.9 c-1.6,1.5-3.4,2.6-5.2,3.7c3.5,5.7,7.7,10.9,11,16.8c-4,0.2-8,0.2-12,0.1c-3.5-4.9-7-9.9-10.3-14.9C245.8,85,241.9,85,238,85 c0,5,0,10,0,15c-3.7,0-7.5,0-11.2,0C226.7,83,226.7,66,226.8,49 M238,58c0,6.1,0,12.1,0,18.2c6-0.1,12.6,1.2,18-2.1 c4.7-2.8,5-10.4,0.5-13.6C251.2,56.7,244.2,58.3,238,58z"></path> <path class="st4" d="M298,49c3.7,0,7.4,0,11,0c7.8,17,15.7,33.8,23.1,51c-4,0.1-8.1,0.1-12.1,0c-1.6-3.5-2.8-7.1-4.5-10.5 c-0.5-1.6-2.3-1.1-3.5-1.2c-6.7,0-13.3,0.1-20,0c-1.9,3.8-3.4,7.8-5.2,11.7c-4,0.1-7.9,0.1-11.9-0.1C282.5,82.8,290.3,66,298,49 M303.4,61.9c-2.6,6-5.3,11.9-7.8,18c5.3,0.1,10.5,0.1,15.8,0C308.9,73.9,306.5,67.7,303.4,61.9z"></path> <path class="st4" d="M340.8,49c12.9,0,25.7,0,38.6,0c0.1,2.9,0.1,5.9-0.1,8.8c-9.1-0.1-18.2-0.1-27.2,0c0,4.7,0,9.5,0,14.2 c8.1,0,16.1,0,24.2,0c0,3,0,6,0,9c-8.1,0.1-16.2,0-24.2,0c0,6.3,0,12.7,0,19c-3.7,0-7.5,0-11.2,0C340.7,83,340.7,66,340.8,49z"></path> <path class="st4" d="M383.2,49.1c14.9-0.2,29.8-0.1,44.8-0.1c0,3,0,6,0,9c-5.6,0-11.2-0.1-16.8,0.1c0.1,14,0.1,27.9,0,41.9 c-3.7,0-7.5,0-11.2,0c0-14,0-28,0-42c-5.6,0-11.2,0.1-16.8-0.1C383.3,55,383.3,52,383.2,49.1z"></path> <path class="st4" d="M436.8,49c7.8,0,15.5-0.1,23.3,0c6.2,0.1,13,1.8,17.2,6.7c6.1,7.5,4.8,20.7-3.8,25.8 c-7.6,4.7-16.9,3.2-25.4,3.5c0,5,0,10,0,15c-3.7,0-7.5,0-11.2,0C436.7,83,436.7,66,436.8,49 M448,58c0,6,0,12,0,18 c6-0.3,12.5,1.2,17.9-2c5-2.9,5-11,0-13.9C460.6,56.9,454,58.3,448,58z"></path> <path class="st4" d="M491.8,49c3.7,0,7.5,0,11.2,0c0,17,0,34,0,51c-3.7,0-7.5,0-11.2,0C491.7,83,491.7,66,491.8,49z"></path> <path class="st4" d="M511.9,49.2c4.3-0.2,8.7-0.2,13-0.1c3.9,5.3,7.7,10.7,11.6,16.1c4.5-4.9,7.9-10.6,11.8-16 c4.3-0.2,8.5-0.2,12.8,0c-5.6,8.4-12.1,16.2-17.6,24.7c6.3,8.7,13,17.1,18.8,26.1c-4.4,0.2-8.8,0.1-13.2,0.1 c-4.3-5.8-8.1-11.9-12.8-17.3c-4.2,5.8-8.2,11.6-12.4,17.3c-4.3,0-8.7,0.1-13-0.2c5.9-8.8,12.6-17.1,18.7-25.8 C523.9,65.6,517.5,57.7,511.9,49.2z"></path> <path class="st4" d="M569.8,49c12.9,0,25.7,0,38.6,0c0.1,2.9,0.1,5.9-0.1,8.8c-9.1-0.1-18.2-0.1-27.2,0c0,3.8,0,7.6,0,11.4 c8,0.1,16.1,0.1,24.1,0c0.1,2.9,0.2,5.8,0.1,8.7c-8.1,0.1-16.1,0-24.2,0c0,4.4,0,8.8,0,13.2c9.4,0.1,18.8,0.1,28.2,0 c0.2,2.9,0.2,5.9,0.1,8.8c-13.2,0-26.4,0-39.6,0C569.7,83,569.7,66,569.8,49z"></path> <path class="st4" d="M620.8,49c3.7,0,7.5,0,11.2,0c0,14,0,28,0,42c8.7,0,17.5,0,26.2,0c0.1,3,0.1,6,0,9c-12.5,0-25,0-37.4,0 C620.7,83,620.7,66,620.8,49z"></path> </g> <g id="_x23_ca2127e4"> <path class="st5" d="M65.9,85.7c5.9-6.6,12.4-12.7,18.7-18.9c0.9,0.6,1.8,1.1,2.8,1.7c-6.1,5.9-13.1,10.9-18.8,17.2 C68,85.7,66.6,85.7,65.9,85.7z"></path> </g> <rect x="648.5" y="26.2" class="st6" width="86.5" height="63.4"></rect> <text transform="matrix(1 0 0 1 648.485 48.4772)" class="st7 st8">®</text> </svg>